<svg xmlns="http://www.w3.org/2000/svg" xmlns:xlink="http://www.w3.org/1999/xlink" version="1.1" data-diagram-type="CLASS" style="width:497px;height:323px;background:#FFFFFF;" width="497px" height="323px" viewBox="0 0 497 323" zoomAndPan="magnify" preserveAspectRatio="none" contentStyleType="text/css"><?plantuml 1.2026.9beta4?><defs/><g font-family="sans-serif" lengthAdjust="spacing"><g class="title" data-source-line="1"><text x="186.695" y="22.995" fill="#000" font-size="14" textLength="117.229" font-weight="700">Java三大集合类图</text></g><!--class Collection--><g class="entity" data-qualified-name="Collection" id="ent0001" data-source-line="3"><rect x="224.59" y="44.297" width="101.248" height="48" fill="#F1F1F1" style="stroke:#181818;stroke-width:0.5;" rx="2.5" ry="2.5"/><ellipse cx="239.59" cy="60.297" rx="11" ry="11" fill="#B4A7E5" style="stroke:#181818;stroke-width:1;"/><path d="M235.512,56.063 L235.512,53.906 L242.903,53.906 L242.903,56.063 L240.434,56.063 L240.434,64.141 L242.903,64.141 L242.903,66.297 L235.512,66.297 L235.512,64.141 L237.981,64.141 L237.981,56.063 L235.512,56.063 Z " fill="#000"/><text x="253.59" y="65.144" fill="#000" font-size="14" textLength="69.248" font-style="italic">Collection</text><line x1="225.59" y1="76.297" x2="324.838" y2="76.297" style="stroke:#181818;stroke-width:0.5;"/><line x1="225.59" y1="84.297" x2="324.838" y2="84.297" style="stroke:#181818;stroke-width:0.5;"/></g><!--class List--><g class="entity" data-qualified-name="List" id="ent0002" data-source-line="4"><rect x="159.98" y="152.297" width="56.473" height="48" fill="#F1F1F1" style="stroke:#181818;stroke-width:0.5;" rx="2.5" ry="2.5"/><ellipse cx="174.98" cy="168.297" rx="11" ry="11" fill="#B4A7E5" style="stroke:#181818;stroke-width:1;"/><path d="M170.902,164.063 L170.902,161.906 L178.293,161.906 L178.293,164.063 L175.824,164.063 L175.824,172.141 L178.293,172.141 L178.293,174.297 L170.902,174.297 L170.902,172.141 L173.371,172.141 L173.371,164.063 L170.902,164.063 Z " fill="#000"/><text x="188.98" y="173.144" fill="#000" font-size="14" textLength="24.473" font-style="italic">List</text><line x1="160.98" y1="184.297" x2="215.453" y2="184.297" style="stroke:#181818;stroke-width:0.5;"/><line x1="160.98" y1="192.297" x2="215.453" y2="192.297" style="stroke:#181818;stroke-width:0.5;"/></g><!--class Set--><g class="entity" data-qualified-name="Set" id="ent0003" data-source-line="5"><rect x="271.72" y="152.297" width="54.989" height="48" fill="#F1F1F1" style="stroke:#181818;stroke-width:0.5;" rx="2.5" ry="2.5"/><ellipse cx="286.72" cy="168.297" rx="11" ry="11" fill="#B4A7E5" style="stroke:#181818;stroke-width:1;"/><path d="M282.642,164.063 L282.642,161.906 L290.033,161.906 L290.033,164.063 L287.564,164.063 L287.564,172.141 L290.033,172.141 L290.033,174.297 L282.642,174.297 L282.642,172.141 L285.111,172.141 L285.111,164.063 L282.642,164.063 Z " fill="#000"/><text x="300.72" y="173.144" fill="#000" font-size="14" textLength="22.989" font-style="italic">Set</text><line x1="272.72" y1="184.297" x2="325.709" y2="184.297" style="stroke:#181818;stroke-width:0.5;"/><line x1="272.72" y1="192.297" x2="325.709" y2="192.297" style="stroke:#181818;stroke-width:0.5;"/></g><!--class Map--><g class="entity" data-qualified-name="Map" id="ent0004" data-source-line="6"><rect x="403.44" y="44.297" width="61.545" height="48" fill="#F1F1F1" style="stroke:#181818;stroke-width:0.5;" rx="2.5" ry="2.5"/><ellipse cx="418.44" cy="60.297" rx="11" ry="11" fill="#B4A7E5" style="stroke:#181818;stroke-width:1;"/><path d="M414.362,56.063 L414.362,53.906 L421.753,53.906 L421.753,56.063 L419.284,56.063 L419.284,64.141 L421.753,64.141 L421.753,66.297 L414.362,66.297 L414.362,64.141 L416.831,64.141 L416.831,56.063 L414.362,56.063 Z " fill="#000"/><text x="432.44" y="65.144" fill="#000" font-size="14" textLength="29.545" font-style="italic">Map</text><line x1="404.44" y1="76.297" x2="463.985" y2="76.297" style="stroke:#181818;stroke-width:0.5;"/><line x1="404.44" y1="84.297" x2="463.985" y2="84.297" style="stroke:#181818;stroke-width:0.5;"/></g><!--class ArrayList--><g class="entity" data-qualified-name="ArrayList" id="ent0005" data-source-line="8"><rect x="7" y="260.297" width="94.426" height="48" fill="#F1F1F1" style="stroke:#181818;stroke-width:0.5;" rx="2.5" ry="2.5"/><ellipse cx="22" cy="276.297" rx="11" ry="11" fill="#ADD1B2" style="stroke:#181818;stroke-width:1;"/><path d="M24.969,281.938 Q24.391,282.234 23.75,282.375 Q23.109,282.531 22.406,282.531 Q19.906,282.531 18.578,280.891 Q17.266,279.234 17.266,276.109 Q17.266,272.984 18.578,271.328 Q19.906,269.672 22.406,269.672 Q23.109,269.672 23.75,269.828 Q24.406,269.984 24.969,270.281 L24.969,273 Q24.344,272.422 23.75,272.156 Q23.156,271.875 22.531,271.875 Q21.188,271.875 20.5,272.953 Q19.813,274.016 19.813,276.109 Q19.813,278.203 20.5,279.281 Q21.188,280.344 22.531,280.344 Q23.156,280.344 23.75,280.078 Q24.344,279.797 24.969,279.219 L24.969,281.938 Z " fill="#000"/><text x="36" y="281.144" fill="#000" font-size="14" textLength="62.426">ArrayList</text><line x1="8" y1="292.297" x2="100.426" y2="292.297" style="stroke:#181818;stroke-width:0.5;"/><line x1="8" y1="300.297" x2="100.426" y2="300.297" style="stroke:#181818;stroke-width:0.5;"/></g><!--class LinkedList--><g class="entity" data-qualified-name="LinkedList" id="ent0006" data-source-line="9"><rect x="136.89" y="260.297" width="102.643" height="48" fill="#F1F1F1" style="stroke:#181818;stroke-width:0.5;" rx="2.5" ry="2.5"/><ellipse cx="151.89" cy="276.297" rx="11" ry="11" fill="#ADD1B2" style="stroke:#181818;stroke-width:1;"/><path d="M154.859,281.938 Q154.281,282.234 153.64,282.375 Q152.999,282.531 152.296,282.531 Q149.796,282.531 148.468,280.891 Q147.156,279.234 147.156,276.109 Q147.156,272.984 148.468,271.328 Q149.796,269.672 152.296,269.672 Q152.999,269.672 153.64,269.828 Q154.296,269.984 154.859,270.281 L154.859,273 Q154.234,272.422 153.64,272.156 Q153.046,271.875 152.421,271.875 Q151.078,271.875 150.39,272.953 Q149.703,274.016 149.703,276.109 Q149.703,278.203 150.39,279.281 Q151.078,280.344 152.421,280.344 Q153.046,280.344 153.64,280.078 Q154.234,279.797 154.859,279.219 L154.859,281.938 Z " fill="#000"/><text x="165.89" y="281.144" fill="#000" font-size="14" textLength="70.643">LinkedList</text><line x1="137.89" y1="292.297" x2="238.533" y2="292.297" style="stroke:#181818;stroke-width:0.5;"/><line x1="137.89" y1="300.297" x2="238.533" y2="300.297" style="stroke:#181818;stroke-width:0.5;"/></g><!--class HashSet--><g class="entity" data-qualified-name="HashSet" id="ent0007" data-source-line="10"><rect x="274.08" y="260.297" width="90.263" height="48" fill="#F1F1F1" style="stroke:#181818;stroke-width:0.5;" rx="2.5" ry="2.5"/><ellipse cx="289.08" cy="276.297" rx="11" ry="11" fill="#ADD1B2" style="stroke:#181818;stroke-width:1;"/><path d="M292.049,281.938 Q291.471,282.234 290.83,282.375 Q290.189,282.531 289.486,282.531 Q286.986,282.531 285.658,280.891 Q284.346,279.234 284.346,276.109 Q284.346,272.984 285.658,271.328 Q286.986,269.672 289.486,269.672 Q290.189,269.672 290.83,269.828 Q291.486,269.984 292.049,270.281 L292.049,273 Q291.424,272.422 290.83,272.156 Q290.236,271.875 289.611,271.875 Q288.268,271.875 287.58,272.953 Q286.893,274.016 286.893,276.109 Q286.893,278.203 287.58,279.281 Q288.268,280.344 289.611,280.344 Q290.236,280.344 290.83,280.078 Q291.424,279.797 292.049,279.219 L292.049,281.938 Z " fill="#000"/><text x="303.08" y="281.144" fill="#000" font-size="14" textLength="58.263">HashSet</text><line x1="275.08" y1="292.297" x2="363.343" y2="292.297" style="stroke:#181818;stroke-width:0.5;"/><line x1="275.08" y1="300.297" x2="363.343" y2="300.297" style="stroke:#181818;stroke-width:0.5;"/></g><!--class HashMap--><g class="entity" data-qualified-name="HashMap" id="ent0008" data-source-line="11"><rect x="385.8" y="152.297" width="96.818" height="48" fill="#FFC0CB" style="stroke:#181818;stroke-width:0.5;" rx="2.5" ry="2.5"/><ellipse cx="400.8" cy="168.297" rx="11" ry="11" fill="#ADD1B2" style="stroke:#181818;stroke-width:1;"/><path d="M403.769,173.938 Q403.191,174.234 402.55,174.375 Q401.909,174.531 401.206,174.531 Q398.706,174.531 397.378,172.891 Q396.066,171.234 396.066,168.109 Q396.066,164.984 397.378,163.328 Q398.706,161.672 401.206,161.672 Q401.909,161.672 402.55,161.828 Q403.206,161.984 403.769,162.281 L403.769,165 Q403.144,164.422 402.55,164.156 Q401.956,163.875 401.331,163.875 Q399.988,163.875 399.3,164.953 Q398.613,166.016 398.613,168.109 Q398.613,170.203 399.3,171.281 Q399.988,172.344 401.331,172.344 Q401.956,172.344 402.55,172.078 Q403.144,171.797 403.769,171.219 L403.769,173.938 Z " fill="#000"/><text x="414.8" y="173.144" fill="#000" font-size="14" textLength="64.818">HashMap</text><line x1="386.8" y1="184.297" x2="481.618" y2="184.297" style="stroke:#181818;stroke-width:0.5;"/><line x1="386.8" y1="192.297" x2="481.618" y2="192.297" style="stroke:#181818;stroke-width:0.5;"/></g><!--reverse link Collection to List--><g class="link" data-entity-1="ent0001" data-entity-2="ent0002" id="lnk9" data-source-line="13" data-link-type="extension"><path d="M244.701,106.471 C230.191,124.151 221.76,134.427 207.26,152.087" style="stroke:#181818;stroke-width:1;" fill="none" id="Collection-backto-List" codeLine="13"/><polygon points="256.12,92.557,240.063,102.664,249.339,110.277,256.12,92.557" fill="none" style="stroke:#181818;stroke-width:1;stroke-linejoin:miter;stroke-miterlimit:10;"/></g><!--reverse link Collection to Set--><g class="link" data-entity-1="ent0001" data-entity-2="ent0003" id="lnk10" data-source-line="14" data-link-type="extension"><path d="M284.452,110.113 C288.452,127.793 289.96,134.427 293.96,152.087" style="stroke:#181818;stroke-width:1;" fill="none" id="Collection-backto-Set" codeLine="14"/><polygon points="280.48,92.557,278.6,111.437,290.304,108.789,280.48,92.557" fill="none" style="stroke:#181818;stroke-width:1;stroke-linejoin:miter;stroke-miterlimit:10;"/></g><!--reverse link List to ArrayList--><g class="link" data-entity-1="ent0002" data-entity-2="ent0005" id="lnk11" data-source-line="15" data-link-type="extension"><path d="M145.675,210.947 C123.245,228.697 106.18,242.197 83.52,260.117" style="stroke:#181818;stroke-width:1;stroke-dasharray:7,7;" fill="none" id="List-backto-ArrayList" codeLine="15"/><polygon points="159.79,199.777,141.952,206.242,149.398,215.652,159.79,199.777" fill="none" style="stroke:#181818;stroke-width:1;stroke-linejoin:miter;stroke-miterlimit:10;"/></g><!--reverse link List to LinkedList--><g class="link" data-entity-1="ent0002" data-entity-2="ent0006" id="lnk12" data-source-line="16" data-link-type="extension"><path d="M188.21,218.557 C188.21,236.237 188.21,242.427 188.21,260.087" style="stroke:#181818;stroke-width:1;stroke-dasharray:7,7;" fill="none" id="List-backto-LinkedList" codeLine="16"/><polygon points="188.21,200.557,182.21,218.557,194.21,218.557,188.21,200.557" fill="none" style="stroke:#181818;stroke-width:1;stroke-linejoin:miter;stroke-miterlimit:10;"/></g><!--reverse link Set to HashSet--><g class="link" data-entity-1="ent0003" data-entity-2="ent0007" id="lnk13" data-source-line="17" data-link-type="extension"><path d="M306.941,218.244 C310.281,235.924 311.5,242.427 314.83,260.087" style="stroke:#181818;stroke-width:1;stroke-dasharray:7,7;" fill="none" id="Set-backto-HashSet" codeLine="17"/><polygon points="303.6,200.557,301.046,219.358,312.837,217.13,303.6,200.557" fill="none" style="stroke:#181818;stroke-width:1;stroke-linejoin:miter;stroke-miterlimit:10;"/></g><!--reverse link Map to HashMap--><g class="link" data-entity-1="ent0004" data-entity-2="ent0008" id="lnk14" data-source-line="18" data-link-type="extension"><path d="M434.21,110.557 C434.21,128.237 434.21,134.427 434.21,152.087" style="stroke:#181818;stroke-width:1;stroke-dasharray:7,7;" fill="none" id="Map-backto-HashMap" codeLine="18"/><polygon points="434.21,92.557,428.21,110.557,440.21,110.557,434.21,92.557" fill="none" style="stroke:#181818;stroke-width:1;stroke-linejoin:miter;stroke-miterlimit:10;"/></g><?plantuml-src AyaioKbLy4eiItooe_FfakKlPxSzdT3nVEFkfxFtSN5bvfMa5gKb9gSgEEVdvAGcbsJcvo49-cGMbo1nWrEHURw91LnSoJc9nSKAZaL5YPLWnH2-JsPUTceAae17Od46I3U21zIje1m0LCV5XR1QmQP6LnTYAxeWI3T80iZJqqEo4266P2bGCKGCPY_8DhW0a0C0?></g></svg>