<svg xmlns="http://www.w3.org/2000/svg" xmlns:xlink="http://www.w3.org/1999/xlink" version="1.1" data-diagram-type="CLASS" style="width:904px;height:431px;background:#FFFFFF;" width="904px" height="431px" viewBox="0 0 904 431" zoomAndPan="magnify" preserveAspectRatio="none" contentStyleType="text/css"><?plantuml 1.2026.9beta4?><defs/><g font-family="sans-serif" lengthAdjust="spacing"><g class="title" data-source-line="1"><text x="410.97" y="22.995" fill="#000" font-size="14" textLength="75.229" font-weight="700">Java锁类图</text></g><!--class AbstractOwnableSynchronizer--><g class="entity" data-qualified-name="AbstractOwnableSynchronizer" id="ent0001" data-source-line="3"><rect x="20.85" y="260.297" width="243.497" height="48" fill="#F1F1F1" style="stroke:#181818;stroke-width:0.5;" rx="2.5" ry="2.5"/><ellipse cx="35.85" cy="276.297" rx="11" ry="11" fill="#A9DCDF" style="stroke:#181818;stroke-width:1;"/><path d="M35.959,271.641 L34.803,276.719 L37.131,276.719 L35.959,271.641 Z M34.475,269.406 L37.459,269.406 L40.819,281.797 L38.366,281.797 L37.6,278.734 L34.319,278.734 L33.569,281.797 L31.131,281.797 L34.475,269.406 Z " fill="#000"/><text x="49.85" y="281.144" fill="#000" font-size="14" textLength="211.497" font-style="italic">AbstractOwnableSynchronizer</text><line x1="21.85" y1="292.297" x2="263.347" y2="292.297" style="stroke:#181818;stroke-width:0.5;"/><line x1="21.85" y1="300.297" x2="263.347" y2="300.297" style="stroke:#181818;stroke-width:0.5;"/></g><!--class AbstractQueuedSynchronizer--><g class="entity" data-qualified-name="AbstractQueuedSynchronizer" id="ent0002" data-source-line="4"><rect x="299.06" y="260.297" width="237.064" height="48" fill="#FFC0CB" style="stroke:#181818;stroke-width:0.5;" rx="2.5" ry="2.5"/><ellipse cx="314.06" cy="276.297" rx="11" ry="11" fill="#A9DCDF" style="stroke:#181818;stroke-width:1;"/><path d="M314.169,271.641 L313.013,276.719 L315.341,276.719 L314.169,271.641 Z M312.685,269.406 L315.669,269.406 L319.029,281.797 L316.576,281.797 L315.81,278.734 L312.529,278.734 L311.779,281.797 L309.341,281.797 L312.685,269.406 Z " fill="#000"/><text x="328.06" y="281.144" fill="#000" font-size="14" textLength="205.064" font-style="italic">AbstractQueuedSynchronizer</text><line x1="300.06" y1="292.297" x2="535.124" y2="292.297" style="stroke:#181818;stroke-width:0.5;"/><line x1="300.06" y1="300.297" x2="535.124" y2="300.297" style="stroke:#181818;stroke-width:0.5;"/></g><!--class AbstractQueuedLongSynchronizer--><g class="entity" data-qualified-name="AbstractQueuedLongSynchronizer" id="ent0003" data-source-line="5"><rect x="7" y="368.297" width="271.189" height="48" fill="#F1F1F1" style="stroke:#181818;stroke-width:0.5;" rx="2.5" ry="2.5"/><ellipse cx="22" cy="384.297" rx="11" ry="11" fill="#A9DCDF" style="stroke:#181818;stroke-width:1;"/><path d="M22.109,379.641 L20.953,384.719 L23.281,384.719 L22.109,379.641 Z M20.625,377.406 L23.609,377.406 L26.969,389.797 L24.516,389.797 L23.75,386.734 L20.469,386.734 L19.719,389.797 L17.281,389.797 L20.625,377.406 Z " fill="#000"/><text x="36" y="389.144" fill="#000" font-size="14" textLength="239.189" font-style="italic">AbstractQueuedLongSynchronizer</text><line x1="8" y1="400.297" x2="277.189" y2="400.297" style="stroke:#181818;stroke-width:0.5;"/><line x1="8" y1="408.297" x2="277.189" y2="408.297" style="stroke:#181818;stroke-width:0.5;"/></g><!--class Condition--><g class="entity" data-qualified-name="Condition" id="ent0004" data-source-line="6"><rect x="340.19" y="368.297" width="98.808" height="48" fill="#F1F1F1" style="stroke:#181818;stroke-width:0.5;" rx="2.5" ry="2.5"/><ellipse cx="355.19" cy="384.297" rx="11" ry="11" fill="#B4A7E5" style="stroke:#181818;stroke-width:1;"/><path d="M351.112,380.063 L351.112,377.906 L358.503,377.906 L358.503,380.063 L356.034,380.063 L356.034,388.141 L358.503,388.141 L358.503,390.297 L351.112,390.297 L351.112,388.141 L353.581,388.141 L353.581,380.063 L351.112,380.063 Z " fill="#000"/><text x="369.19" y="389.144" fill="#000" font-size="14" textLength="66.808" font-style="italic">Condition</text><line x1="341.19" y1="400.297" x2="437.998" y2="400.297" style="stroke:#181818;stroke-width:0.5;"/><line x1="341.19" y1="408.297" x2="437.998" y2="408.297" style="stroke:#181818;stroke-width:0.5;"/></g><!--class Lock--><g class="entity" data-qualified-name="Lock" id="ent0005" data-source-line="7"><rect x="591.51" y="44.297" width="64.17" height="48" fill="#F1F1F1" style="stroke:#181818;stroke-width:0.5;" rx="2.5" ry="2.5"/><ellipse cx="606.51" cy="60.297" rx="11" ry="11" fill="#B4A7E5" style="stroke:#181818;stroke-width:1;"/><path d="M602.432,56.063 L602.432,53.906 L609.823,53.906 L609.823,56.063 L607.354,56.063 L607.354,64.141 L609.823,64.141 L609.823,66.297 L602.432,66.297 L602.432,64.141 L604.901,64.141 L604.901,56.063 L602.432,56.063 Z " fill="#000"/><text x="620.51" y="65.144" fill="#000" font-size="14" textLength="32.17" font-style="italic">Lock</text><line x1="592.51" y1="76.297" x2="654.68" y2="76.297" style="stroke:#181818;stroke-width:0.5;"/><line x1="592.51" y1="84.297" x2="654.68" y2="84.297" style="stroke:#181818;stroke-width:0.5;"/></g><!--class LockSupport--><g class="entity" data-qualified-name="LockSupport" id="ent0006" data-source-line="8"><rect x="473.84" y="368.297" width="119.514" height="48" fill="#F1F1F1" style="stroke:#181818;stroke-width:0.5;" rx="2.5" ry="2.5"/><ellipse cx="488.84" cy="384.297" rx="11" ry="11" fill="#ADD1B2" style="stroke:#181818;stroke-width:1;"/><path d="M491.809,389.938 Q491.231,390.234 490.59,390.375 Q489.949,390.531 489.246,390.531 Q486.746,390.531 485.418,388.891 Q484.106,387.234 484.106,384.109 Q484.106,380.984 485.418,379.328 Q486.746,377.672 489.246,377.672 Q489.949,377.672 490.59,377.828 Q491.246,377.984 491.809,378.281 L491.809,381 Q491.184,380.422 490.59,380.156 Q489.996,379.875 489.371,379.875 Q488.028,379.875 487.34,380.953 Q486.653,382.016 486.653,384.109 Q486.653,386.203 487.34,387.281 Q488.028,388.344 489.371,388.344 Q489.996,388.344 490.59,388.078 Q491.184,387.797 491.809,387.219 L491.809,389.938 Z " fill="#000"/><text x="502.84" y="389.144" fill="#000" font-size="14" textLength="87.514">LockSupport</text><line x1="474.84" y1="400.297" x2="592.354" y2="400.297" style="stroke:#181818;stroke-width:0.5;"/><line x1="474.84" y1="408.297" x2="592.354" y2="408.297" style="stroke:#181818;stroke-width:0.5;"/></g><!--class ReadWriteLock--><g class="entity" data-qualified-name="ReadWriteLock" id="ent0007" data-source-line="9"><rect x="570.81" y="260.297" width="137.567" height="48" fill="#F1F1F1" style="stroke:#181818;stroke-width:0.5;" rx="2.5" ry="2.5"/><ellipse cx="585.81" cy="276.297" rx="11" ry="11" fill="#B4A7E5" style="stroke:#181818;stroke-width:1;"/><path d="M581.732,272.063 L581.732,269.906 L589.123,269.906 L589.123,272.063 L586.654,272.063 L586.654,280.141 L589.123,280.141 L589.123,282.297 L581.732,282.297 L581.732,280.141 L584.201,280.141 L584.201,272.063 L581.732,272.063 Z " fill="#000"/><text x="599.81" y="281.144" fill="#000" font-size="14" textLength="105.567" font-style="italic">ReadWriteLock</text><line x1="571.81" y1="292.297" x2="707.377" y2="292.297" style="stroke:#181818;stroke-width:0.5;"/><line x1="571.81" y1="300.297" x2="707.377" y2="300.297" style="stroke:#181818;stroke-width:0.5;"/></g><!--class ReentrantLock--><g class="entity" data-qualified-name="ReentrantLock" id="ent0008" data-source-line="10"><rect x="350.5" y="152.297" width="134.184" height="48" fill="#FFC0CB" style="stroke:#181818;stroke-width:0.5;" rx="2.5" ry="2.5"/><ellipse cx="365.5" cy="168.297" rx="11" ry="11" fill="#ADD1B2" style="stroke:#181818;stroke-width:1;"/><path d="M368.469,173.938 Q367.891,174.234 367.25,174.375 Q366.609,174.531 365.906,174.531 Q363.406,174.531 362.078,172.891 Q360.766,171.234 360.766,168.109 Q360.766,164.984 362.078,163.328 Q363.406,161.672 365.906,161.672 Q366.609,161.672 367.25,161.828 Q367.906,161.984 368.469,162.281 L368.469,165 Q367.844,164.422 367.25,164.156 Q366.656,163.875 366.031,163.875 Q364.688,163.875 364,164.953 Q363.313,166.016 363.313,168.109 Q363.313,170.203 364,171.281 Q364.688,172.344 366.031,172.344 Q366.656,172.344 367.25,172.078 Q367.844,171.797 368.469,171.219 L368.469,173.938 Z " fill="#000"/><text x="379.5" y="173.144" fill="#000" font-size="14" textLength="102.184">ReentrantLock</text><line x1="351.5" y1="184.297" x2="483.684" y2="184.297" style="stroke:#181818;stroke-width:0.5;"/><line x1="351.5" y1="192.297" x2="483.684" y2="192.297" style="stroke:#181818;stroke-width:0.5;"/></g><!--class ReentrantReadWriteLock--><g class="entity" data-qualified-name="ReentrantReadWriteLock" id="ent0009" data-source-line="11"><rect x="519.8" y="152.297" width="207.581" height="48" fill="#FFC0CB" style="stroke:#181818;stroke-width:0.5;" rx="2.5" ry="2.5"/><ellipse cx="534.8" cy="168.297" rx="11" ry="11" fill="#ADD1B2" style="stroke:#181818;stroke-width:1;"/><path d="M537.769,173.938 Q537.191,174.234 536.55,174.375 Q535.909,174.531 535.206,174.531 Q532.706,174.531 531.378,172.891 Q530.066,171.234 530.066,168.109 Q530.066,164.984 531.378,163.328 Q532.706,161.672 535.206,161.672 Q535.909,161.672 536.55,161.828 Q537.206,161.984 537.769,162.281 L537.769,165 Q537.144,164.422 536.55,164.156 Q535.956,163.875 535.331,163.875 Q533.988,163.875 533.3,164.953 Q532.613,166.016 532.613,168.109 Q532.613,170.203 533.3,171.281 Q533.988,172.344 535.331,172.344 Q535.956,172.344 536.55,172.078 Q537.144,171.797 537.769,171.219 L537.769,173.938 Z " fill="#000"/><text x="548.8" y="173.144" fill="#000" font-size="14" textLength="175.581">ReentrantReadWriteLock</text><line x1="520.8" y1="184.297" x2="726.381" y2="184.297" style="stroke:#181818;stroke-width:0.5;"/><line x1="520.8" y1="192.297" x2="726.381" y2="192.297" style="stroke:#181818;stroke-width:0.5;"/></g><!--class StampedLock--><g class="entity" data-qualified-name="StampedLock" id="ent0010" data-source-line="12"><rect x="762.02" y="152.297" width="127.149" height="48" fill="#F1F1F1" style="stroke:#181818;stroke-width:0.5;" rx="2.5" ry="2.5"/><ellipse cx="777.02" cy="168.297" rx="11" ry="11" fill="#ADD1B2" style="stroke:#181818;stroke-width:1;"/><path d="M779.989,173.938 Q779.411,174.234 778.77,174.375 Q778.129,174.531 777.426,174.531 Q774.926,174.531 773.598,172.891 Q772.286,171.234 772.286,168.109 Q772.286,164.984 773.598,163.328 Q774.926,161.672 777.426,161.672 Q778.129,161.672 778.77,161.828 Q779.426,161.984 779.989,162.281 L779.989,165 Q779.364,164.422 778.77,164.156 Q778.176,163.875 777.551,163.875 Q776.208,163.875 775.52,164.953 Q774.833,166.016 774.833,168.109 Q774.833,170.203 775.52,171.281 Q776.208,172.344 777.551,172.344 Q778.176,172.344 778.77,172.078 Q779.364,171.797 779.989,171.219 L779.989,173.938 Z " fill="#000"/><text x="791.02" y="173.144" fill="#000" font-size="14" textLength="95.149">StampedLock</text><line x1="763.02" y1="184.297" x2="888.169" y2="184.297" style="stroke:#181818;stroke-width:0.5;"/><line x1="763.02" y1="192.297" x2="888.169" y2="192.297" style="stroke:#181818;stroke-width:0.5;"/></g><!--link Lock to ReentrantLock--><g class="link" data-entity-1="ent0005" data-entity-2="ent0008" id="lnk11" data-source-line="14" data-link-type="extension"><path d="M591.41,85.857 C556.89,103.617 517.826,123.722 478.936,143.732" style="stroke:#181818;stroke-width:1;" fill="none" id="Lock-to-ReentrantLock" codeLine="14"/><polygon points="462.93,151.967,481.681,149.067,476.19,138.396,462.93,151.967" fill="none" style="stroke:#181818;stroke-width:1;stroke-linejoin:miter;stroke-miterlimit:10;"/></g><!--link Lock to ReentrantReadWriteLock--><g class="link" data-entity-1="ent0005" data-entity-2="ent0009" id="lnk12" data-source-line="15" data-link-type="nested"><path d="M623.59,92.557 C623.59,110.237 623.59,118.427 623.59,136.087" style="stroke:#181818;stroke-width:1;" fill="none" id="Lock-to-ReentrantReadWriteLock" codeLine="15"/><ellipse cx="623.59" cy="144.087" rx="8" ry="8" fill="#FFF" style="stroke:#181818;stroke-width:1;"/><line x1="623.59" y1="136.087" x2="623.59" y2="152.087" style="stroke:#181818;stroke-width:1;"/><line x1="631.59" y1="144.087" x2="615.59" y2="144.087" style="stroke:#181818;stroke-width:1;"/></g><!--link Lock to StampedLock--><g class="link" data-entity-1="ent0005" data-entity-2="ent0010" id="lnk13" data-source-line="16" data-link-type="nested"><path d="M656.05,86.327 C689.95,104.117 729.203,124.711 767.003,144.551" style="stroke:#181818;stroke-width:1;" fill="none" id="Lock-to-StampedLock" codeLine="16"/><ellipse cx="774.086" cy="148.269" rx="8" ry="8" fill="#FFF" style="stroke:#181818;stroke-width:1;"/><line x1="767.003" y1="144.551" x2="781.17" y2="151.987" style="stroke:#181818;stroke-width:1;"/><line x1="777.804" y1="141.185" x2="770.368" y2="155.353" style="stroke:#181818;stroke-width:1;"/></g><!--reverse link ReentrantLock to AbstractQueuedSynchronizer--><g class="link" data-entity-1="ent0008" data-entity-2="ent0002" id="lnk14" data-source-line="18" data-link-type="nested"><path d="M417.59,216.557 C417.59,234.237 417.59,242.427 417.59,260.087" style="stroke:#181818;stroke-width:1;" fill="none" id="ReentrantLock-backto-AbstractQueuedSynchronizer" codeLine="18"/><ellipse cx="417.59" cy="208.557" rx="8" ry="8" fill="#FFF" style="stroke:#181818;stroke-width:1;"/><line x1="417.59" y1="216.557" x2="417.59" y2="200.557" style="stroke:#181818;stroke-width:1;"/><line x1="409.59" y1="208.557" x2="425.59" y2="208.557" style="stroke:#181818;stroke-width:1;"/></g><!--reverse link ReentrantReadWriteLock to AbstractQueuedSynchronizer--><g class="link" data-entity-1="ent0009" data-entity-2="ent0002" id="lnk15" data-source-line="19" data-link-type="nested"><path d="M563.903,208.008 C529.663,225.628 497.16,242.357 462.94,259.967" style="stroke:#181818;stroke-width:1;" fill="none" id="ReentrantReadWriteLock-backto-AbstractQueuedSynchronizer" codeLine="19"/><ellipse cx="571.017" cy="204.347" rx="8" ry="8" fill="#FFF" style="stroke:#181818;stroke-width:1;"/><line x1="563.903" y1="208.008" x2="578.13" y2="200.687" style="stroke:#181818;stroke-width:1;"/><line x1="567.356" y1="197.234" x2="574.677" y2="211.461" style="stroke:#181818;stroke-width:1;"/></g><!--reverse link ReentrantReadWriteLock to ReadWriteLock--><g class="link" data-entity-1="ent0009" data-entity-2="ent0007" id="lnk16" data-source-line="20" data-link-type="extension"><path d="M629.788,218.357 C632.448,236.037 633.43,242.427 636.09,260.087" style="stroke:#181818;stroke-width:1;" fill="none" id="ReentrantReadWriteLock-backto-ReadWriteLock" codeLine="20"/><polygon points="627.11,200.557,623.855,219.249,635.721,217.464,627.11,200.557" fill="none" style="stroke:#181818;stroke-width:1;stroke-linejoin:miter;stroke-miterlimit:10;"/></g><!--reverse link AbstractQueuedSynchronizer to Condition--><g class="link" data-entity-1="ent0002" data-entity-2="ent0004" id="lnk17" data-source-line="22" data-link-type="nested"><path d="M407.364,324.026 C402.694,341.706 400.39,350.427 395.73,368.087" style="stroke:#181818;stroke-width:1;" fill="none" id="AbstractQueuedSynchronizer-backto-Condition" codeLine="22"/><ellipse cx="409.407" cy="316.292" rx="8" ry="8" fill="#FFF" style="stroke:#181818;stroke-width:1;"/><line x1="407.364" y1="324.026" x2="411.45" y2="308.557" style="stroke:#181818;stroke-width:1;"/><line x1="401.672" y1="314.249" x2="417.142" y2="318.335" style="stroke:#181818;stroke-width:1;"/></g><!--link AbstractQueuedSynchronizer to LockSupport--><g class="link" data-entity-1="ent0002" data-entity-2="ent0006" id="lnk18" data-source-line="23" data-link-type="dependency"><path d="M443.05,308.557 C462.39,326.237 485.179,347.054 504.509,364.714" style="stroke:#181818;stroke-width:1;" fill="none" id="AbstractQueuedSynchronizer-to-LockSupport" codeLine="23"/><polygon points="508.2,368.087,504.253,359.063,504.509,364.714,498.858,364.97,508.2,368.087" fill="#181818" style="stroke:#181818;stroke-width:1;stroke-linejoin:miter;stroke-miterlimit:10;"/></g><!--link AbstractOwnableSynchronizer to AbstractQueuedSynchronizer--><g class="link" data-entity-1="ent0001" data-entity-2="ent0002" id="lnk19" data-source-line="25" data-link-type="extension"><path d="M264.79,284.297 C276.13,284.297 269.47,284.297 280.81,284.297" style="stroke:#181818;stroke-width:1;" fill="none" id="AbstractOwnableSynchronizer-to-AbstractQueuedSynchronizer" codeLine="25"/><polygon points="298.81,284.297,280.81,278.297,280.81,290.297,298.81,284.297" fill="none" style="stroke:#181818;stroke-width:1;stroke-linejoin:miter;stroke-miterlimit:10;"/></g><!--link AbstractOwnableSynchronizer to AbstractQueuedLongSynchronizer--><g class="link" data-entity-1="ent0001" data-entity-2="ent0003" id="lnk20" data-source-line="26" data-link-type="extension"><path d="M142.59,308.557 C142.59,326.237 142.59,332.427 142.59,350.087" style="stroke:#181818;stroke-width:1;" fill="none" id="AbstractOwnableSynchronizer-to-AbstractQueuedLongSynchronizer" codeLine="26"/><polygon points="142.59,368.087,148.59,350.087,136.59,350.087,142.59,368.087" fill="none" style="stroke:#181818;stroke-width:1;stroke-linejoin:miter;stroke-miterlimit:10;"/></g><?plantuml-src dL9BYW8n4Dtd506NaXk8CBWR13-zS5scImssbIPTFQAucJlCRaunwm5l8-8jxFZ1Zj9Pk4lgVUfHLMmuG_a9Nt3w-Jx-_Hz-zqB0j607cgNEe2Zan-qxM1DCCqmsf1VEajcYQwAEIYmnhJDbQsXe6UVtBSq3TqECRWOQPSzIQjXOgjNwLY_5rSS_apBFhUCQOOoGJfnXh377Y5Ir9FQrMwWd9905b8HXbVkSbPsue4hjkg7dlTvkC7pWWLkOgwrKP9QY8UfxgiwkaeKHHMIFlibZ6n6YKjrWBo9oHzAFCH8zAdtLFX_I6G00?></g></svg>