<svg xmlns="http://www.w3.org/2000/svg" xmlns:xlink="http://www.w3.org/1999/xlink" version="1.1" data-diagram-type="MINDMAP" style="width:710px;height:3089px;background:#FFFFFF;" width="710px" height="3089px" viewBox="0 0 710 3089" zoomAndPan="magnify" preserveAspectRatio="none" contentStyleType="text/css"><?plantuml 1.2026.9beta4?><defs/><g font-family="sans-serif" lengthAdjust="spacing"><rect x="10" y="1525.941" width="76" height="36.297" fill="#FFB6C1" style="stroke:#181818;stroke-width:1.5;" rx="12.5" ry="12.5"/><text x="20" y="1548.937" fill="#000" font-size="14" textLength="56">数据结构</text><rect x="136" y="48.148" width="76" height="36.297" fill="#ADD8E6" style="stroke:#181818;stroke-width:1.5;" rx="12.5" ry="12.5"/><text x="146" y="71.144" fill="#000" font-size="14" textLength="56">基本概念</text><rect x="262" y="20" width="145.999" height="36.297" fill="#F1F1F1" style="stroke:#181818;stroke-width:1.5;" rx="12.5" ry="12.5"/><text x="272" y="42.995" fill="#000" font-size="14" textLength="125.999">数据结构的基本概念</text><path d="M212,66.297 L222,66.297 C237,66.297 237,38.148 252,38.148 L262,38.148" style="stroke:#181818;stroke-width:1;" fill="none"/><rect x="262" y="76.297" width="135.8" height="36.297" fill="#F1F1F1" style="stroke:#181818;stroke-width:1.5;" rx="12.5" ry="12.5"/><text x="272" y="99.292" fill="#000" font-size="14" textLength="98">算法的基本概念</text><path d="M212,66.297 L222,66.297 C237,66.297 237,94.445 252,94.445 L262,94.445" style="stroke:#181818;stroke-width:1;" fill="none"/><path d="M86,1544.09 L96,1544.09 C111,1544.09 111,66.297 126,66.297 L136,66.297" style="stroke:#181818;stroke-width:1;" fill="none"/><rect x="136" y="202.965" width="62" height="36.297" fill="#ADD8E6" style="stroke:#181818;stroke-width:1.5;" rx="12.5" ry="12.5"/><text x="146" y="225.96" fill="#000" font-size="14" textLength="42">线性表</text><rect x="248" y="132.594" width="132" height="36.297" fill="#F1F1F1" style="stroke:#181818;stroke-width:1.5;" rx="12.5" ry="12.5"/><text x="258" y="155.589" fill="#000" font-size="14" textLength="112">线性表的基本概念</text><path d="M198,221.113 L208,221.113 C223,221.113 223,150.742 238,150.742 L248,150.742" style="stroke:#181818;stroke-width:1;" fill="none"/><rect x="248" y="217.039" width="104" height="36.297" fill="#F1F1F1" style="stroke:#181818;stroke-width:1.5;" rx="12.5" ry="12.5"/><text x="258" y="240.034" fill="#000" font-size="14" textLength="84">线性表的实现</text><rect x="401.999" y="188.891" width="76" height="36.297" fill="#F1F1F1" style="stroke:#181818;stroke-width:1.5;" rx="12.5" ry="12.5"/><text x="411.999" y="211.886" fill="#000" font-size="14" textLength="56">顺序存储</text><path d="M351.999,235.188 L361.999,235.188 C376.999,235.188 376.999,207.039 391.999,207.039 L401.999,207.039" style="stroke:#181818;stroke-width:1;" fill="none"/><rect x="401.999" y="245.188" width="76" height="36.297" fill="#F1F1F1" style="stroke:#181818;stroke-width:1.5;" rx="12.5" ry="12.5"/><text x="411.999" y="268.183" fill="#000" font-size="14" textLength="56">链式存储</text><path d="M351.999,235.188 L361.999,235.188 C376.999,235.188 376.999,263.336 391.999,263.336 L401.999,263.336" style="stroke:#181818;stroke-width:1;" fill="none"/><path d="M198,221.113 L208,221.113 C223,221.113 223,235.188 238,235.188 L248,235.188" style="stroke:#181818;stroke-width:1;" fill="none"/><rect x="248" y="273.336" width="104" height="36.297" fill="#F1F1F1" style="stroke:#181818;stroke-width:1.5;" rx="12.5" ry="12.5"/><text x="258" y="296.331" fill="#000" font-size="14" textLength="84">线性表的应用</text><path d="M198,221.113 L208,221.113 C223,221.113 223,291.484 238,291.484 L248,291.484" style="stroke:#181818;stroke-width:1;" fill="none"/><path d="M86,1544.09 L96,1544.09 C111,1544.09 111,221.113 126,221.113 L136,221.113" style="stroke:#181818;stroke-width:1;" fill="none"/><rect x="136" y="470.375" width="118" height="36.297" fill="#ADD8E6" style="stroke:#181818;stroke-width:1.5;" rx="12.5" ry="12.5"/><text x="146" y="493.37" fill="#000" font-size="14" textLength="98">栈、队列和数组</text><rect x="303.999" y="329.633" width="145.999" height="36.297" fill="#F1F1F1" style="stroke:#181818;stroke-width:1.5;" rx="12.5" ry="12.5"/><text x="313.999" y="352.628" fill="#000" font-size="14" textLength="125.999">栈和队列的基本概念</text><path d="M253.999,488.523 L263.999,488.523 C278.999,488.523 278.999,347.781 293.999,347.781 L303.999,347.781" style="stroke:#181818;stroke-width:1;" fill="none"/><rect x="303.999" y="385.93" width="173.999" height="36.297" fill="#F1F1F1" style="stroke:#181818;stroke-width:1.5;" rx="12.5" ry="12.5"/><text x="313.999" y="408.925" fill="#000" font-size="14" textLength="153.999">栈和队列的顺序存储结构</text><path d="M253.999,488.523 L263.999,488.523 C278.999,488.523 278.999,404.078 293.999,404.078 L303.999,404.078" style="stroke:#181818;stroke-width:1;" fill="none"/><rect x="303.999" y="442.227" width="173.999" height="36.297" fill="#F1F1F1" style="stroke:#181818;stroke-width:1.5;" rx="12.5" ry="12.5"/><text x="313.999" y="465.222" fill="#000" font-size="14" textLength="153.999">栈和队列的链式存储结构</text><path d="M253.999,488.523 L263.999,488.523 C278.999,488.523 278.999,460.375 293.999,460.375 L303.999,460.375" style="stroke:#181818;stroke-width:1;" fill="none"/><rect x="303.999" y="498.523" width="118" height="36.297" fill="#F1F1F1" style="stroke:#181818;stroke-width:1.5;" rx="12.5" ry="12.5"/><text x="313.999" y="521.519" fill="#000" font-size="14" textLength="98">多维数组的存储</text><path d="M253.999,488.523 L263.999,488.523 C278.999,488.523 278.999,516.672 293.999,516.672 L303.999,516.672" style="stroke:#181818;stroke-width:1;" fill="none"/><rect x="303.999" y="554.82" width="145.999" height="36.297" fill="#F1F1F1" style="stroke:#181818;stroke-width:1.5;" rx="12.5" ry="12.5"/><text x="313.999" y="577.815" fill="#000" font-size="14" textLength="125.999">特殊矩阵的压缩存储</text><path d="M253.999,488.523 L263.999,488.523 C278.999,488.523 278.999,572.969 293.999,572.969 L303.999,572.969" style="stroke:#181818;stroke-width:1;" fill="none"/><rect x="303.999" y="611.117" width="159.999" height="36.297" fill="#F1F1F1" style="stroke:#181818;stroke-width:1.5;" rx="12.5" ry="12.5"/><text x="313.999" y="634.112" fill="#000" font-size="14" textLength="139.999">栈、队列和数组的应用</text><path d="M253.999,488.523 L263.999,488.523 C278.999,488.523 278.999,629.266 293.999,629.266 L303.999,629.266" style="stroke:#181818;stroke-width:1;" fill="none"/><path d="M86,1544.09 L96,1544.09 C111,1544.09 111,488.523 126,488.523 L136,488.523" style="stroke:#181818;stroke-width:1;" fill="none"/><rect x="136" y="948.898" width="90" height="36.297" fill="#ADD8E6" style="stroke:#181818;stroke-width:1.5;" rx="12.5" ry="12.5"/><text x="146" y="971.894" fill="#000" font-size="14" textLength="70">树与二叉树</text><rect x="275.999" y="667.414" width="104" height="36.297" fill="#F1F1F1" style="stroke:#181818;stroke-width:1.5;" rx="12.5" ry="12.5"/><text x="285.999" y="690.409" fill="#000" font-size="14" textLength="84">树的基本概念</text><path d="M225.999,967.047 L235.999,967.047 C250.999,967.047 250.999,685.563 265.999,685.563 L275.999,685.563" style="stroke:#181818;stroke-width:1;" fill="none"/><rect x="275.999" y="808.156" width="62" height="36.297" fill="#F1F1F1" style="stroke:#181818;stroke-width:1.5;" rx="12.5" ry="12.5"/><text x="285.999" y="831.151" fill="#000" font-size="14" textLength="42">二叉树</text><rect x="387.999" y="723.711" width="187.999" height="36.297" fill="#F1F1F1" style="stroke:#181818;stroke-width:1.5;" rx="12.5" ry="12.5"/><text x="397.999" y="746.706" fill="#000" font-size="14" textLength="167.999">二叉树的定义及其主要特征</text><path d="M337.999,826.305 L347.999,826.305 C362.999,826.305 362.999,741.859 377.999,741.859 L387.999,741.859" style="stroke:#181818;stroke-width:1;" fill="none"/><rect x="387.999" y="780.008" width="257.999" height="36.297" fill="#F1F1F1" style="stroke:#181818;stroke-width:1.5;" rx="12.5" ry="12.5"/><text x="397.999" y="803.003" fill="#000" font-size="14" textLength="237.999">二叉树的顺序存储结构和链式存储结构</text><path d="M337.999,826.305 L347.999,826.305 C362.999,826.305 362.999,798.156 377.999,798.156 L387.999,798.156" style="stroke:#181818;stroke-width:1;" fill="none"/><rect x="387.999" y="836.305" width="104" height="36.297" fill="#F1F1F1" style="stroke:#181818;stroke-width:1.5;" rx="12.5" ry="12.5"/><text x="397.999" y="859.3" fill="#000" font-size="14" textLength="84">二叉树的遍历</text><path d="M337.999,826.305 L347.999,826.305 C362.999,826.305 362.999,854.453 377.999,854.453 L387.999,854.453" style="stroke:#181818;stroke-width:1;" fill="none"/><rect x="387.999" y="892.602" width="201.999" height="36.297" fill="#F1F1F1" style="stroke:#181818;stroke-width:1.5;" rx="12.5" ry="12.5"/><text x="397.999" y="915.597" fill="#000" font-size="14" textLength="181.999">线索二叉树的基本概念和构造</text><path d="M337.999,826.305 L347.999,826.305 C362.999,826.305 362.999,910.75 377.999,910.75 L387.999,910.75" style="stroke:#181818;stroke-width:1;" fill="none"/><path d="M225.999,967.047 L235.999,967.047 C250.999,967.047 250.999,826.305 265.999,826.305 L275.999,826.305" style="stroke:#181818;stroke-width:1;" fill="none"/><rect x="275.999" y="1005.195" width="76" height="36.297" fill="#F1F1F1" style="stroke:#181818;stroke-width:1.5;" rx="12.5" ry="12.5"/><text x="285.999" y="1028.19" fill="#000" font-size="14" textLength="56">树、森林</text><rect x="401.999" y="948.898" width="104" height="36.297" fill="#F1F1F1" style="stroke:#181818;stroke-width:1.5;" rx="12.5" ry="12.5"/><text x="411.999" y="971.894" fill="#000" font-size="14" textLength="84">树的存储结构</text><path d="M351.999,1023.344 L361.999,1023.344 C376.999,1023.344 376.999,967.047 391.999,967.047 L401.999,967.047" style="stroke:#181818;stroke-width:1;" fill="none"/><rect x="401.999" y="1005.195" width="145.999" height="36.297" fill="#F1F1F1" style="stroke:#181818;stroke-width:1.5;" rx="12.5" ry="12.5"/><text x="411.999" y="1028.19" fill="#000" font-size="14" textLength="125.999">森林与二叉树的转换</text><path d="M351.999,1023.344 L361.999,1023.344 C376.999,1023.344 376.999,1023.344 391.999,1023.344 L401.999,1023.344" style="stroke:#181818;stroke-width:1;" fill="none"/><rect x="401.999" y="1061.492" width="118" height="36.297" fill="#F1F1F1" style="stroke:#181818;stroke-width:1.5;" rx="12.5" ry="12.5"/><text x="411.999" y="1084.487" fill="#000" font-size="14" textLength="98">树和森林的遍历</text><path d="M351.999,1023.344 L361.999,1023.344 C376.999,1023.344 376.999,1079.641 391.999,1079.641 L401.999,1079.641" style="stroke:#181818;stroke-width:1;" fill="none"/><path d="M225.999,967.047 L235.999,967.047 C250.999,967.047 250.999,1023.344 265.999,1023.344 L275.999,1023.344" style="stroke:#181818;stroke-width:1;" fill="none"/><rect x="275.999" y="1174.086" width="132" height="36.297" fill="#F1F1F1" style="stroke:#181818;stroke-width:1.5;" rx="12.5" ry="12.5"/><text x="285.999" y="1197.081" fill="#000" font-size="14" textLength="112">树与二叉树的应用</text><rect x="457.999" y="1117.789" width="231.271" height="36.297" fill="#F1F1F1" style="stroke:#181818;stroke-width:1.5;" rx="12.5" ry="12.5"/><text x="467.999" y="1140.784" fill="#000" font-size="14" textLength="211.271">哈夫曼(Huffman)树和哈夫曼编码</text><path d="M407.999,1192.234 L417.999,1192.234 C432.999,1192.234 432.999,1135.938 447.999,1135.938 L457.999,1135.938" style="stroke:#181818;stroke-width:1;" fill="none"/><rect x="457.999" y="1174.086" width="118" height="36.297" fill="#F1F1F1" style="stroke:#181818;stroke-width:1.5;" rx="12.5" ry="12.5"/><text x="467.999" y="1197.081" fill="#000" font-size="14" textLength="98">并查集及其应用</text><path d="M407.999,1192.234 L417.999,1192.234 C432.999,1192.234 432.999,1192.234 447.999,1192.234 L457.999,1192.234" style="stroke:#181818;stroke-width:1;" fill="none"/><rect x="457.999" y="1230.383" width="90" height="36.297" fill="#F1F1F1" style="stroke:#181818;stroke-width:1.5;" rx="12.5" ry="12.5"/><text x="467.999" y="1253.378" fill="#000" font-size="14" textLength="70">堆及其应用</text><path d="M407.999,1192.234 L417.999,1192.234 C432.999,1192.234 432.999,1248.531 447.999,1248.531 L457.999,1248.531" style="stroke:#181818;stroke-width:1;" fill="none"/><path d="M225.999,967.047 L235.999,967.047 C250.999,967.047 250.999,1192.234 265.999,1192.234 L275.999,1192.234" style="stroke:#181818;stroke-width:1;" fill="none"/><path d="M86,1544.09 L96,1544.09 C111,1544.09 111,967.047 126,967.047 L136,967.047" style="stroke:#181818;stroke-width:1;" fill="none"/><rect x="136" y="1511.867" width="34" height="36.297" fill="#ADD8E6" style="stroke:#181818;stroke-width:1.5;" rx="12.5" ry="12.5"/><text x="146" y="1534.862" fill="#000" font-size="14">图</text><rect x="220" y="1286.68" width="104" height="36.297" fill="#F1F1F1" style="stroke:#181818;stroke-width:1.5;" rx="12.5" ry="12.5"/><text x="230" y="1309.675" fill="#000" font-size="14" textLength="84">图的基本概念</text><path d="M170,1530.016 L180,1530.016 C195,1530.016 195,1304.828 210,1304.828 L220,1304.828" style="stroke:#181818;stroke-width:1;" fill="none"/><rect x="220" y="1342.977" width="145.999" height="36.297" fill="#F1F1F1" style="stroke:#181818;stroke-width:1.5;" rx="12.5" ry="12.5"/><text x="230" y="1365.972" fill="#000" font-size="14" textLength="125.999">图的存储及基本操作</text><rect x="415.999" y="1286.68" width="76" height="36.297" fill="#F1F1F1" style="stroke:#181818;stroke-width:1.5;" rx="12.5" ry="12.5"/><text x="425.999" y="1309.675" fill="#000" font-size="14" textLength="56">邻接矩阵</text><path d="M365.999,1361.125 L375.999,1361.125 C390.999,1361.125 390.999,1304.828 405.999,1304.828 L415.999,1304.828" style="stroke:#181818;stroke-width:1;" fill="none"/><rect x="415.999" y="1342.977" width="62" height="36.297" fill="#F1F1F1" style="stroke:#181818;stroke-width:1.5;" rx="12.5" ry="12.5"/><text x="425.999" y="1365.972" fill="#000" font-size="14" textLength="42">邻接表</text><path d="M365.999,1361.125 L375.999,1361.125 C390.999,1361.125 390.999,1361.125 405.999,1361.125 L415.999,1361.125" style="stroke:#181818;stroke-width:1;" fill="none"/><rect x="415.999" y="1399.273" width="159.999" height="36.297" fill="#F1F1F1" style="stroke:#181818;stroke-width:1.5;" rx="12.5" ry="12.5"/><text x="425.999" y="1422.269" fill="#000" font-size="14" textLength="139.999">邻接多重表、十字链表</text><path d="M365.999,1361.125 L375.999,1361.125 C390.999,1361.125 390.999,1417.422 405.999,1417.422 L415.999,1417.422" style="stroke:#181818;stroke-width:1;" fill="none"/><path d="M170,1530.016 L180,1530.016 C195,1530.016 195,1361.125 210,1361.125 L220,1361.125" style="stroke:#181818;stroke-width:1;" fill="none"/><rect x="220" y="1483.719" width="76" height="36.297" fill="#F1F1F1" style="stroke:#181818;stroke-width:1.5;" rx="12.5" ry="12.5"/><text x="230" y="1506.714" fill="#000" font-size="14" textLength="56">图的遍历</text><rect x="345.999" y="1455.57" width="104" height="36.297" fill="#F1F1F1" style="stroke:#181818;stroke-width:1.5;" rx="12.5" ry="12.5"/><text x="355.999" y="1478.565" fill="#000" font-size="14" textLength="84">深度优先搜索</text><path d="M295.999,1501.867 L305.999,1501.867 C320.999,1501.867 320.999,1473.719 335.999,1473.719 L345.999,1473.719" style="stroke:#181818;stroke-width:1;" fill="none"/><rect x="345.999" y="1511.867" width="104" height="36.297" fill="#F1F1F1" style="stroke:#181818;stroke-width:1.5;" rx="12.5" ry="12.5"/><text x="355.999" y="1534.862" fill="#000" font-size="14" textLength="84">广度优先搜索</text><path d="M295.999,1501.867 L305.999,1501.867 C320.999,1501.867 320.999,1530.016 335.999,1530.016 L345.999,1530.016" style="stroke:#181818;stroke-width:1;" fill="none"/><path d="M170,1530.016 L180,1530.016 C195,1530.016 195,1501.867 210,1501.867 L220,1501.867" style="stroke:#181818;stroke-width:1;" fill="none"/><rect x="220" y="1652.609" width="104" height="36.297" fill="#F1F1F1" style="stroke:#181818;stroke-width:1.5;" rx="12.5" ry="12.5"/><text x="230" y="1675.604" fill="#000" font-size="14" textLength="84">图的基本应用</text><rect x="373.999" y="1568.164" width="128.923" height="36.297" fill="#F1F1F1" style="stroke:#181818;stroke-width:1.5;" rx="12.5" ry="12.5"/><text x="383.999" y="1591.159" fill="#000" font-size="14" textLength="108.923">最小(代价)生成树</text><path d="M323.999,1670.758 L333.999,1670.758 C348.999,1670.758 348.999,1586.313 363.999,1586.313 L373.999,1586.313" style="stroke:#181818;stroke-width:1;" fill="none"/><rect x="373.999" y="1624.461" width="76" height="36.297" fill="#F1F1F1" style="stroke:#181818;stroke-width:1.5;" rx="12.5" ry="12.5"/><text x="383.999" y="1647.456" fill="#000" font-size="14" textLength="56">最短路径</text><path d="M323.999,1670.758 L333.999,1670.758 C348.999,1670.758 348.999,1642.609 363.999,1642.609 L373.999,1642.609" style="stroke:#181818;stroke-width:1;" fill="none"/><rect x="373.999" y="1680.758" width="76" height="36.297" fill="#F1F1F1" style="stroke:#181818;stroke-width:1.5;" rx="12.5" ry="12.5"/><text x="383.999" y="1703.753" fill="#000" font-size="14" textLength="56">拓扑排序</text><path d="M323.999,1670.758 L333.999,1670.758 C348.999,1670.758 348.999,1698.906 363.999,1698.906 L373.999,1698.906" style="stroke:#181818;stroke-width:1;" fill="none"/><rect x="373.999" y="1737.055" width="76" height="36.297" fill="#F1F1F1" style="stroke:#181818;stroke-width:1.5;" rx="12.5" ry="12.5"/><text x="383.999" y="1760.05" fill="#000" font-size="14" textLength="56">关键路径</text><path d="M323.999,1670.758 L333.999,1670.758 C348.999,1670.758 348.999,1755.203 363.999,1755.203 L373.999,1755.203" style="stroke:#181818;stroke-width:1;" fill="none"/><path d="M170,1530.016 L180,1530.016 C195,1530.016 195,1670.758 210,1670.758 L220,1670.758" style="stroke:#181818;stroke-width:1;" fill="none"/><path d="M86,1544.09 L96,1544.09 C111,1544.09 111,1530.016 126,1530.016 L136,1530.016" style="stroke:#181818;stroke-width:1;" fill="none"/><rect x="136" y="2074.836" width="48" height="36.297" fill="#90EE90" style="stroke:#181818;stroke-width:1.5;" rx="12.5" ry="12.5"/><text x="146" y="2097.831" fill="#000" font-size="14" textLength="28">查找</text><rect x="234" y="1793.352" width="118" height="36.297" fill="#F1F1F1" style="stroke:#181818;stroke-width:1.5;" rx="12.5" ry="12.5"/><text x="244" y="1816.347" fill="#000" font-size="14" textLength="98">查找的基本概念</text><path d="M184,2092.984 L194,2092.984 C209,2092.984 209,1811.5 224,1811.5 L234,1811.5" style="stroke:#181818;stroke-width:1;" fill="none"/><rect x="234" y="1849.648" width="90" height="36.297" fill="#F1F1F1" style="stroke:#181818;stroke-width:1.5;" rx="12.5" ry="12.5"/><text x="244" y="1872.644" fill="#000" font-size="14" textLength="70">顺序查找法</text><path d="M184,2092.984 L194,2092.984 C209,2092.984 209,1867.797 224,1867.797 L234,1867.797" style="stroke:#181818;stroke-width:1;" fill="none"/><rect x="234" y="1905.945" width="90" height="36.297" fill="#F1F1F1" style="stroke:#181818;stroke-width:1.5;" rx="12.5" ry="12.5"/><text x="244" y="1928.94" fill="#000" font-size="14" textLength="70">分块查找法</text><path d="M184,2092.984 L194,2092.984 C209,2092.984 209,1924.094 224,1924.094 L234,1924.094" style="stroke:#181818;stroke-width:1;" fill="none"/><rect x="234" y="1962.242" width="90" height="36.297" fill="#F1F1F1" style="stroke:#181818;stroke-width:1.5;" rx="12.5" ry="12.5"/><text x="244" y="1985.237" fill="#000" font-size="14" textLength="70">折半查找法</text><path d="M184,2092.984 L194,2092.984 C209,2092.984 209,1980.391 224,1980.391 L234,1980.391" style="stroke:#181818;stroke-width:1;" fill="none"/><rect x="234" y="2074.836" width="76" height="36.297" fill="#F1F1F1" style="stroke:#181818;stroke-width:1.5;" rx="12.5" ry="12.5"/><text x="244" y="2097.831" fill="#000" font-size="14" textLength="56">树型查找</text><rect x="359.999" y="2018.539" width="104" height="36.297" fill="#F1F1F1" style="stroke:#181818;stroke-width:1.5;" rx="12.5" ry="12.5"/><text x="369.999" y="2041.534" fill="#000" font-size="14" textLength="84">二叉树搜索树</text><path d="M309.999,2092.984 L319.999,2092.984 C334.999,2092.984 334.999,2036.688 349.999,2036.688 L359.999,2036.688" style="stroke:#181818;stroke-width:1;" fill="none"/><rect x="359.999" y="2074.836" width="90" height="36.297" fill="#F1F1F1" style="stroke:#181818;stroke-width:1.5;" rx="12.5" ry="12.5"/><text x="369.999" y="2097.831" fill="#000" font-size="14" textLength="70">平衡二叉树</text><path d="M309.999,2092.984 L319.999,2092.984 C334.999,2092.984 334.999,2092.984 349.999,2092.984 L359.999,2092.984" style="stroke:#181818;stroke-width:1;" fill="none"/><rect x="359.999" y="2131.133" width="62" height="36.297" fill="#F1F1F1" style="stroke:#181818;stroke-width:1.5;" rx="12.5" ry="12.5"/><text x="369.999" y="2154.128" fill="#000" font-size="14" textLength="42">红黑树</text><path d="M309.999,2092.984 L319.999,2092.984 C334.999,2092.984 334.999,2149.281 349.999,2149.281 L359.999,2149.281" style="stroke:#181818;stroke-width:1;" fill="none"/><path d="M184,2092.984 L194,2092.984 C209,2092.984 209,2092.984 224,2092.984 L234,2092.984" style="stroke:#181818;stroke-width:1;" fill="none"/><rect x="234" y="2187.43" width="246.939" height="36.297" fill="#F1F1F1" style="stroke:#181818;stroke-width:1.5;" rx="12.5" ry="12.5"/><text x="244" y="2210.425" fill="#000" font-size="14" textLength="226.939">B树及其基本操作、B+树的基本概念</text><path d="M184,2092.984 L194,2092.984 C209,2092.984 209,2205.578 224,2205.578 L234,2205.578" style="stroke:#181818;stroke-width:1;" fill="none"/><rect x="234" y="2243.727" width="108.197" height="36.297" fill="#F1F1F1" style="stroke:#181818;stroke-width:1.5;" rx="12.5" ry="12.5"/><text x="244" y="2266.722" fill="#000" font-size="14" textLength="88.197">散列(Hash)表</text><path d="M184,2092.984 L194,2092.984 C209,2092.984 209,2261.875 224,2261.875 L234,2261.875" style="stroke:#181818;stroke-width:1;" fill="none"/><rect x="234" y="2300.023" width="118" height="36.297" fill="#F1F1F1" style="stroke:#181818;stroke-width:1.5;" rx="12.5" ry="12.5"/><text x="244" y="2323.019" fill="#000" font-size="14" textLength="98">字符串模式匹配</text><path d="M184,2092.984 L194,2092.984 C209,2092.984 209,2318.172 224,2318.172 L234,2318.172" style="stroke:#181818;stroke-width:1;" fill="none"/><rect x="234" y="2356.32" width="159.999" height="36.297" fill="#F1F1F1" style="stroke:#181818;stroke-width:1.5;" rx="12.5" ry="12.5"/><text x="244" y="2379.315" fill="#000" font-size="14" textLength="139.999">查找算法的分析及应用</text><path d="M184,2092.984 L194,2092.984 C209,2092.984 209,2374.469 224,2374.469 L234,2374.469" style="stroke:#181818;stroke-width:1;" fill="none"/><path d="M86,1544.09 L96,1544.09 C111,1544.09 111,2092.984 126,2092.984 L136,2092.984" style="stroke:#181818;stroke-width:1;" fill="none"/><rect x="136" y="2722.25" width="48" height="36.297" fill="#90EE90" style="stroke:#181818;stroke-width:1.5;" rx="12.5" ry="12.5"/><text x="146" y="2745.245" fill="#000" font-size="14" textLength="28">排序</text><rect x="234" y="2412.617" width="118" height="36.297" fill="#F1F1F1" style="stroke:#181818;stroke-width:1.5;" rx="12.5" ry="12.5"/><text x="244" y="2435.612" fill="#000" font-size="14" textLength="98">排序的基本概念</text><path d="M184,2740.398 L194,2740.398 C209,2740.398 209,2430.766 224,2430.766 L234,2430.766" style="stroke:#181818;stroke-width:1;" fill="none"/><rect x="234" y="2468.914" width="104" height="36.297" fill="#F1F1F1" style="stroke:#181818;stroke-width:1.5;" rx="12.5" ry="12.5"/><text x="244" y="2491.909" fill="#000" font-size="14" textLength="84">直接插入排序</text><path d="M184,2740.398 L194,2740.398 C209,2740.398 209,2487.063 224,2487.063 L234,2487.063" style="stroke:#181818;stroke-width:1;" fill="none"/><rect x="234" y="2525.211" width="104" height="36.297" fill="#F1F1F1" style="stroke:#181818;stroke-width:1.5;" rx="12.5" ry="12.5"/><text x="244" y="2548.206" fill="#000" font-size="14" textLength="84">折半插入排序</text><path d="M184,2740.398 L194,2740.398 C209,2740.398 209,2543.359 224,2543.359 L234,2543.359" style="stroke:#181818;stroke-width:1;" fill="none"/><rect x="234" y="2581.508" width="166.514" height="36.297" fill="#F1F1F1" style="stroke:#181818;stroke-width:1.5;" rx="12.5" ry="12.5"/><text x="244" y="2604.503" fill="#000" font-size="14" textLength="146.514">起泡排序(bubble sort)</text><path d="M184,2740.398 L194,2740.398 C209,2740.398 209,2599.656 224,2599.656 L234,2599.656" style="stroke:#181818;stroke-width:1;" fill="none"/><rect x="234" y="2637.805" width="104" height="36.297" fill="#F1F1F1" style="stroke:#181818;stroke-width:1.5;" rx="12.5" ry="12.5"/><text x="244" y="2660.8" fill="#000" font-size="14" textLength="84">简单选择排序</text><path d="M184,2740.398 L194,2740.398 C209,2740.398 209,2655.953 224,2655.953 L234,2655.953" style="stroke:#181818;stroke-width:1;" fill="none"/><rect x="234" y="2694.102" width="151.038" height="36.297" fill="#F1F1F1" style="stroke:#181818;stroke-width:1.5;" rx="12.5" ry="12.5"/><text x="244" y="2717.097" fill="#000" font-size="14" textLength="131.038">希尔排序(shell sort)</text><path d="M184,2740.398 L194,2740.398 C209,2740.398 209,2712.25 224,2712.25 L234,2712.25" style="stroke:#181818;stroke-width:1;" fill="none"/><rect x="234" y="2750.398" width="76" height="36.297" fill="#F1F1F1" style="stroke:#181818;stroke-width:1.5;" rx="12.5" ry="12.5"/><text x="244" y="2773.394" fill="#000" font-size="14" textLength="56">快速排序</text><path d="M184,2740.398 L194,2740.398 C209,2740.398 209,2768.547 224,2768.547 L234,2768.547" style="stroke:#181818;stroke-width:1;" fill="none"/><rect x="234" y="2806.695" width="62" height="36.297" fill="#F1F1F1" style="stroke:#181818;stroke-width:1.5;" rx="12.5" ry="12.5"/><text x="244" y="2829.69" fill="#000" font-size="14" textLength="42">堆排序</text><path d="M184,2740.398 L194,2740.398 C209,2740.398 209,2824.844 224,2824.844 L234,2824.844" style="stroke:#181818;stroke-width:1;" fill="none"/><rect x="234" y="2862.992" width="191.985" height="36.297" fill="#F1F1F1" style="stroke:#181818;stroke-width:1.5;" rx="12.5" ry="12.5"/><text x="244" y="2885.987" fill="#000" font-size="14" textLength="171.985">二路归并排序(merge sort)</text><path d="M184,2740.398 L194,2740.398 C209,2740.398 209,2881.141 224,2881.141 L234,2881.141" style="stroke:#181818;stroke-width:1;" fill="none"/><rect x="234" y="2919.289" width="76" height="36.297" fill="#F1F1F1" style="stroke:#181818;stroke-width:1.5;" rx="12.5" ry="12.5"/><text x="244" y="2942.284" fill="#000" font-size="14" textLength="56">基数排序</text><path d="M184,2740.398 L194,2740.398 C209,2740.398 209,2937.438 224,2937.438 L234,2937.438" style="stroke:#181818;stroke-width:1;" fill="none"/><rect x="234" y="2975.586" width="76" height="36.297" fill="#F1F1F1" style="stroke:#181818;stroke-width:1.5;" rx="12.5" ry="12.5"/><text x="244" y="2998.581" fill="#000" font-size="14" textLength="56">外部排序</text><path d="M184,2740.398 L194,2740.398 C209,2740.398 209,2993.734 224,2993.734 L234,2993.734" style="stroke:#181818;stroke-width:1;" fill="none"/><rect x="234" y="3031.883" width="159.999" height="36.297" fill="#F1F1F1" style="stroke:#181818;stroke-width:1.5;" rx="12.5" ry="12.5"/><text x="244" y="3054.878" fill="#000" font-size="14" textLength="139.999">排序算法的分析和应用</text><path d="M184,2740.398 L194,2740.398 C209,2740.398 209,3050.031 224,3050.031 L234,3050.031" style="stroke:#181818;stroke-width:1;" fill="none"/><path d="M86,1544.09 L96,1544.09 C111,1544.09 111,2740.398 126,2740.398 L136,2740.398" style="stroke:#181818;stroke-width:1;" fill="none"/><?plantuml-src VLPTJnf157tdLv3q1MnYh35D-sPyyZyqfe5q_KY16i1ti42NZmNv4YB8WW9Y5AIY0hi8FwOxC-o_w2o3PdTc5vx8FMVkt3dtp9tT3WHT_g3toFV3wpgsms8V2Zqavs4jWiJM_246cZT8Ulo-jV75Pblxzi5pT70OF3xo_TmpS6rs_7k3tPuJRiyEH0bMxs7x5CoU5_22OjpX8cB1GhqI71GfN8DCDaBI38PkvesEVlrRRCKMUaglXjBzTv0Gr8O4f0pebi5fXuRoKp2X8IgbL425ZacviCx_2uNLiWZu4iYbi1v8ZkW5glCuJ73hwYcMlbPTHyovkk8PBcXU8Fc95ANjpXmnFeQz119lrVApXgUJQ7BBi4pFk5gKh39AAr8APEBulo5Lrbe5TW4LN_JsGXd7GIO1eY_AI9wtm_WCO1fUiOHLKzFFMZQJ3641f6CK0Ti3FLqPQjCTIzEf5b53TUFXiOxmkWTh9IhPCe5rEMILNbNCdx_UG-6AJQLjlk2pjQ_HpJ7sKMUTF0-QTx0oSUoUxEzxNJudIVmUHvDpLATr1-CNABRKIenqo3nptOYQJPlALE_YojJQD4jmePoMbh3oWl9QfQ_vgGpJBM9sKqW_TFHnV8lKFm96SVU040RT4dQFSKAHAanz0eT_WTHM9cKGvU5P5Nk6qMncHJ2UtLHDM0s1ViQXoDUAF7IYWWZvC_OAOHOIk_FX0vWopahcOJmBqpbyIUZAeWErq5kkChJfmCznFdpHnHQCwrj50jRT8dUHiF2Je3ye7mEN9JC49if0I9WYs96r95K4TNs9egmYO3oODnfM8mT9LwgSDSwk7MqxOboToR0dTZwk76kmU8q7fsFN5JXqKgxfbj1zMnazmav3cqQfiHeLM3NVNqy-1cjdMWdiu7rhYB6DQyl0YdUpyeGT3ZCv46snYudovk3yUGW73H9sk4_SRWzd3_po1vs6Xpy4XA8QYiFaBPC0Z5AWNrWc21no7W-p7ipkr938hgp7c1Zkf6RKrvmsWaXEB-S_O6lIXC1VBKpEvhdwksEb7zK2F0QNiskRmvzQv7FBPlkqlhcn-NdzgviBkhR-0m00?></g></svg>