<svg xmlns="http://www.w3.org/2000/svg" xmlns:xlink="http://www.w3.org/1999/xlink" version="1.1" data-diagram-type="SEQUENCE" style="width:122px;height:130px;background:#FFFFFF;" width="122px" height="130px" viewBox="0 0 122 130" zoomAndPan="magnify" preserveAspectRatio="none" contentStyleType="text/css"><?plantuml 1.2026.9beta4?><defs/><g font-family="sans-serif" lengthAdjust="spacing"><g><title>Tom</title><rect x="28.877" y="41.297" width="8" height="47.133" fill="#000" fill-opacity="0"/><line x1="32.377" y1="41.297" x2="32.377" y2="88.43" style="stroke:#181818;stroke-width:0.5;stroke-dasharray:5,5;"/></g><g><title>Jerry</title><rect x="84.524" y="41.297" width="8" height="47.133" fill="#000" fill-opacity="0"/><line x1="88.024" y1="41.297" x2="88.024" y2="88.43" style="stroke:#181818;stroke-width:0.5;stroke-dasharray:5,5;"/></g><rect x="10" y="10" width="44.755" height="30.297" fill="#E2E2F0" style="stroke:#181818;stroke-width:0.5;" rx="2.5" ry="2.5"/><text x="17" y="29.995" fill="#000" font-size="14" textLength="30.755">Tom</text><rect x="64.755" y="10" width="46.539" height="30.297" fill="#E2E2F0" style="stroke:#181818;stroke-width:0.5;" rx="2.5" ry="2.5"/><text x="71.755" y="29.995" fill="#000" font-size="14" textLength="32.539">Jerry</text><rect x="10" y="88.43" width="44.755" height="30.297" fill="#E2E2F0" style="stroke:#181818;stroke-width:0.5;" rx="2.5" ry="2.5"/><text x="17" y="108.425" fill="#000" font-size="14" textLength="30.755">Tom</text><rect x="64.755" y="88.43" width="46.539" height="30.297" fill="#E2E2F0" style="stroke:#181818;stroke-width:0.5;" rx="2.5" ry="2.5"/><text x="71.755" y="108.425" fill="#000" font-size="14" textLength="32.539">Jerry</text><polygon points="76.024,66.43,86.024,70.43,76.024,74.43,80.024,70.43" fill="#181818" style="stroke:#181818;stroke-width:1;stroke-linejoin:miter;stroke-miterlimit:10;"/><line x1="32.377" y1="70.43" x2="82.024" y2="70.43" style="stroke:#181818;stroke-width:1;"/><text x="39.377" y="65.364" fill="#000" font-size="13" textLength="31.415">hello</text><?plantuml-src 2ydFLT2rK_1ABIggLB1Io4ZDoSa70000?></g></svg>